<svg id="Layer_1" data-name="Layer 1" xmlns="http://www.w3.org/2000/svg" viewBox="0 0 1092.861 283.799">
  <defs>
    <style>
      .cls-1 {
        fill: #2d2d2d;
      }
    </style>
  </defs>
  <title>1263785d-216c-4ac3-805a-a473630593b6</title>
  <g>
    <path class="cls-1" d="M123.6,137.4h7.5v1.65H96.146V137.4h7.5V14.706L59.1,136.5,16.5,17.555v120h9.9v1.5H7.8v-1.5h7.05V12.755H8.1v-1.35H44.4v1.35h-6.75L68.1,107.1l34.5-94.346h-6.45v-1.35h34.949v1.35h-7.5Z"/>
    <path class="cls-1" d="M224.095,10.956v1.35h-5.85L192.6,75v62.7h6.9v1.35H165.148V137.7h7.35V84.752L143.248,12.306H137.1v-1.35h34.8v1.35h-6.149L191.1,75h.15l25.5-62.7h-5.7v-1.35Z"/>
    <path class="cls-1" d="M390.891,75.6c-.45,33.6-26.849,61.047-60.9,63.447H280.345V137.4h7.5V13.206h-7.5v-1.65h49.5C363.442,13.206,389.241,40.654,390.891,75.6Zm-22.049.3c0-28.649-4.35-59.547-40.348-62.7h-20.7V137.4h19.949C362.392,138,368.841,104.251,368.841,75.9Z"/>
    <path class="cls-1" d="M422.093,137.55h7.35v1.5H394.495v-1.5h7.35V12.755h-7.35v-1.5h34.948v1.5h-7.35Z"/>
    <path class="cls-1" d="M522.29,10.956v1.35h-5.85L490.791,75v62.7h6.9v1.35H463.342V137.7h7.35V84.752L441.442,12.306h-6.149v-1.35h34.8v1.35h-6.149L489.291,75h.15l25.5-62.7h-5.7v-1.35Z"/>
    <path class="cls-1" d="M650.686,12.456V20.1h-1.35v-6H604.188V75.9h37.2V70.8h1.35V82.953h-1.35v-5.4h-37.2V137.4h6.9v1.65h-34.2V137.4h7.35V14.105h-7.35v-1.65Z"/>
    <path class="cls-1" d="M738.285,137.4v1.65H701.237V137.4h6.6L695.537,99H655.789l-14.25,38.548h6.6v1.5H633.29v-1.5h6.6l46.2-126.595,45.3,126.445ZM695.237,97.5l-18.3-56.248L656.238,97.5Z"/>
    <path class="cls-1" d="M859.635,137.4h7.5v1.65H832.187V137.4h7.5V14.706L795.138,136.5,752.54,17.555v120h9.9v1.5h-18.6v-1.5h7.05V12.755h-6.75v-1.35h36.3v1.35h-6.75L804.138,107.1l34.5-94.346h-6.449v-1.35h34.948v1.35h-7.5Z"/>
    <path class="cls-1" d="M900.738,137.55h7.35v1.5H873.138v-1.5h7.35V12.755h-7.35v-1.5h34.949v1.5h-7.35Z"/>
    <path class="cls-1" d="M988.785,138.9h-75v-1.5h7.35V13.206h-7.35v-1.5h34.8v1.5h-7.351V137.4h46.2v-7.05h1.351Z"/>
    <path class="cls-1" d="M1062.133,10.956v1.35h-5.85L1030.635,75v62.7h6.9v1.35h-34.349V137.7h7.35V84.752L981.287,12.306h-6.149v-1.35h34.8v1.35h-6.15l25.35,62.7h.149l25.5-62.7h-5.7v-1.35Z"/>
  </g>
  <g>
    <path d="M586.386,159.125v25.2h-1.225v-25.2Z"/>
    <path d="M618.533,159.125v25.2h-1.224V162.293l-10.368,11.592-10.367-11.592v22.032h-1.188v-25.2l11.556,12.96Z"/>
    <path d="M644.849,184.326h-1.3l-3.42-8.64H628.613l-3.384,8.64h-1.3l10.008-25.2h1.044Zm-5.184-9.864-5.221-13.356-5.328,13.356Z"/>
    <path d="M661.662,184.937a12.845,12.845,0,0,1-6.606-1.781,13.313,13.313,0,0,1-4.823-4.806,13.161,13.161,0,0,1,0-13.23,13.274,13.274,0,0,1,4.823-4.824,12.841,12.841,0,0,1,6.606-1.782,13.007,13.007,0,0,1,4.392.756,13.44,13.44,0,0,1,3.888,2.16l-.756.936a12,12,0,0,0-13.518-1.008,12.12,12.12,0,0,0-4.374,4.374,11.932,11.932,0,0,0,0,12.006,12.082,12.082,0,0,0,4.374,4.393,11.62,11.62,0,0,0,5.994,1.619,11.917,11.917,0,0,0,7.308-2.447v-9.4h-8.388v-1.188h9.576v11.16l-.217.181a13.1,13.1,0,0,1-3.888,2.142A13.311,13.311,0,0,1,661.662,184.937Z"/>
    <path d="M680.38,159.125v25.2h-1.225v-25.2Z"/>
    <path d="M710.044,184.326l-19.44-21.96v21.96H689.38v-25.2l19.439,21.96v-21.96h1.225Z"/>
    <path d="M720.23,171.906v11.2h14.148v1.225H719.043v-25.2h15.336v1.224H720.23v10.368h9.037v1.188Z"/>
    <path d="M742.766,183.138v1.188h-1.188v-1.187Z"/>
    <path d="M776.642,184.326h-5.076v-25.2h5.076a12.312,12.312,0,0,1,6.317,1.692,12.573,12.573,0,0,1,4.59,4.59,12.639,12.639,0,0,1,0,12.636,12.572,12.572,0,0,1-4.59,4.591A12.311,12.311,0,0,1,776.642,184.326Zm0-24.012H772.79V183.1h3.853a11.077,11.077,0,0,0,5.705-1.529,11.415,11.415,0,0,0,4.141-4.14,11.443,11.443,0,0,0,0-11.43,11.381,11.381,0,0,0-4.141-4.158A11.082,11.082,0,0,0,776.642,160.313Z"/>
    <path d="M797.629,171.906v11.2h14.147v1.225H796.441v-25.2h15.336v1.224H797.629v10.368h9.036v1.188Z"/>
    <path d="M833.089,177.594q0,4.356-2.736,5.85a12.565,12.565,0,0,1-6.119,1.493,10.232,10.232,0,0,1-6.444-1.871,6.505,6.505,0,0,1-2.412-5.472H816.6q0,3.744,2.377,4.932a11.665,11.665,0,0,0,5.291,1.188,9.171,9.171,0,0,0,5.616-1.494,5.423,5.423,0,0,0,1.979-4.626,4.875,4.875,0,0,0-.881-3.1,4.944,4.944,0,0,0-2.2-1.6,28.884,28.884,0,0,0-3.582-.99,28.345,28.345,0,0,1-4.14-1.188,5.821,5.821,0,0,1-2.629-2.142,7.307,7.307,0,0,1-1.08-4.266,5.134,5.134,0,0,1,1.8-4.212,9.009,9.009,0,0,1,9.828-.036,5.031,5.031,0,0,1,1.871,4.248h-1.224a4.036,4.036,0,0,0-1.422-3.384,6.433,6.433,0,0,0-4.05-1.116A6.728,6.728,0,0,0,820,160.926a3.991,3.991,0,0,0-1.458,3.384,5.808,5.808,0,0,0,.972,3.582,5.378,5.378,0,0,0,2.377,1.818,25.579,25.579,0,0,0,3.815,1.044,27.483,27.483,0,0,1,3.924,1.1,5.524,5.524,0,0,1,2.448,1.908A6.312,6.312,0,0,1,833.089,177.594Z"/>
    <path d="M841.513,159.125v25.2h-1.225v-25.2Z"/>
    <path d="M863.724,184.937a12.844,12.844,0,0,1-6.605-1.781,13.323,13.323,0,0,1-4.824-4.806,13.174,13.174,0,0,1,0-13.23,13.285,13.285,0,0,1,4.824-4.824,12.84,12.84,0,0,1,6.605-1.782,13,13,0,0,1,4.393.756,13.458,13.458,0,0,1,3.889,2.16l-.757.936a12,12,0,0,0-13.519-1.008,12.125,12.125,0,0,0-4.373,4.374,11.932,11.932,0,0,0,0,12.006,12.086,12.086,0,0,0,4.373,4.393,11.623,11.623,0,0,0,5.994,1.619,11.918,11.918,0,0,0,7.309-2.447v-9.4h-8.389v-1.188h9.576v11.16l-.215.181a13.113,13.113,0,0,1-3.889,2.142A13.308,13.308,0,0,1,863.724,184.937Z"/>
    <path d="M901.884,184.326l-19.44-21.96v21.96H881.22v-25.2l19.439,21.96v-21.96h1.225Z"/>
    <path d="M910.271,183.138v1.188h-1.187v-1.187Z"/>
    <path d="M962.218,159.125v25.2h-1.225V162.293l-10.367,11.592-10.368-11.592v22.032H939.07v-25.2l11.557,12.96Z"/>
    <path d="M988.535,184.326h-1.3l-3.42-8.64H972.3l-3.384,8.64h-1.3l10.008-25.2h1.044Zm-5.184-9.864-5.221-13.356L972.8,174.462Z"/>
    <path d="M1009.63,159.125h1.4l-7.056,12.132,7.56,13.068h-1.4l-7.2-12.42h-7.812l.035,12.42h-1.224v-25.2h1.224v11.556h7.776Z"/>
    <path d="M1019.926,171.906v11.2h14.147v1.225h-15.336v-25.2h15.336v1.224h-14.147v10.368h9.035v1.188Z"/>
    <path d="M1042.462,183.138v1.188h-1.188v-1.187Z"/>
  </g>
</svg>
